<?xml version="1.0" encoding="utf-8"?>
<!-- Generator: Adobe Illustrator 19.1.0, SVG Export Plug-In . SVG Version: 6.00 Build 0)  -->
<svg version="1.1" id="Layer_1" xmlns="http://www.w3.org/2000/svg" xmlns:xlink="http://www.w3.org/1999/xlink" x="0px" y="0px"
	 viewBox="-268 371.8 73.4 50.2" style="enable-background:new -268 371.8 73.4 50.2;" xml:space="preserve">
<style type="text/css">
	.st0{fill:#1C4E9D;}
	.st1{fill:#004E3A;}
</style>
<g>
	<path class="st0" d="M-251.3,373.8l-0.1,12.7c0,5.3-3.1,7.3-7.3,7.3c-3.6,0-8.2-1.6-8.2-7.1v-12.9c0-0.7-0.5-1.1-1-1.4h5.9
		c-0.5,0.2-1,0.7-1,1.4v13c0,2.2,0.7,5.2,4.8,5.2c3.7,0,5-2.4,5-5.5l-0.1-12.7c0-0.7-0.4-1.1-0.8-1.4h3.6
		C-251,372.7-251.3,373.1-251.3,373.8"/>
	<path class="st0" d="M-243,393.8c-2.8,0-4.9-1-5.9-1.5l-0.2-5.2c0.6,2.2,2.4,5.1,5.7,5.1c3.1,0,4-2.2,4-3.7c0-3-2.7-3.4-5.5-4.9
		c-2.8-1.6-4.1-3.2-4.1-5.6c0-4.2,3.9-5.9,6.8-5.9c1.1,0,3.1,0.2,4.7,1.1l0.2,4.6c-0.4-1.6-2.2-4.1-5.2-4.1c-2.4,0-3.3,1.6-3.3,3
		c0,1.9,1.3,2.6,4.2,3.9c2.9,1.4,5.9,2.4,5.9,6.7C-235.7,391.2-239.1,393.8-243,393.8"/>
	<path class="st0" d="M-226.1,374c-0.7,0-2.4,0-2.9,0.1v17.8h2.5c7,0,9-4.7,9-9.2C-217.5,378.9-219.7,374-226.1,374z M-225.7,393.5
		h-8c0.5-0.3,0.8-0.7,0.8-1.4v-18.3c0-0.7-0.3-1.1-0.8-1.4h8.2c10.2,0,12.2,7.2,12.2,10.2C-213.2,388-217.4,393.5-225.7,393.5"/>
	<path class="st0" d="M-206.1,378.5c0,0-2.1,5.3-3.1,7.6h6.3C-204.4,382.6-206.1,378.5-206.1,378.5z M-201.2,393.5
		c0.8-0.4,1-0.9,0.7-1.5c-0.1-0.3-0.9-2.2-1.8-4.3h-7.6c-0.9,2.1-1.7,3.9-1.7,4.3c-0.3,0.7-0.1,1.2,0.7,1.5h-4.3
		c0.9-0.6,1.1-0.9,1.5-1.5c0.6-1.2,8.7-20.2,8.7-20.2s8.2,19,8.8,20.2c0.3,0.6,0.5,1,1.5,1.5H-201.2"/>
</g>
<g>
	<path class="st1" d="M-195.5,396.5c0,0-45.1-1.1-71.7,13.1c0,0,28.3-11.2,71.7-10.1V396.5"/>
	<path class="st1" d="M-267.2,396.5c0,0,15.2,0.2,24.6,3.7c0,0-19.3-1.6-24.6-0.8V396.5"/>
	<path class="st1" d="M-267.2,401.4c0,0,10.9-0.5,17.4,0.2c0,0-15.8,1.9-17.4,2.7V401.4"/>
	<path class="st1" d="M-203,401.9c-0.1,0-0.2,0-0.2,0c-13.1,0.3-40.6,1.8-64,10.1v10h71.7v-20.1C-195.5,401.9-198.3,401.8-203,401.9
		"/>
</g>
</svg>
